<?xml version="1.0" encoding="utf-8" ?>
<svg baseProfile="full" height="100%" version="1.1" width="100%" xmlns="http://www.w3.org/2000/svg" xmlns:ev="http://www.w3.org/2001/xml-events" xmlns:xlink="http://www.w3.org/1999/xlink"><defs><linearGradient id="g" x1="0%" x2="100%" y1="0%" y2="0%"><stop offset="0%" stop-color="cyan" /><stop offset="100%" stop-color="blue" /></linearGradient></defs><line stroke="url(#g)" stroke-width="2" x1="550" x2="1000" y1="0" y2="50" /><line stroke="rgb(255,255,0)" stroke-width="2" x1="500" x2="0" y1="0" y2="100" /><line stroke="rgb(255,255,0)" stroke-width="2" x1="500" x2="0" y1="0" y2="300" /><line stroke="rgb(255,255,0)" stroke-width="2" x1="500" x2="0" y1="0" y2="500" /><line stroke="rgb(255,255,0)" stroke-width="2" x1="500" x2="0" y1="0" y2="700" /><line stroke="rgb(255,255,0)" stroke-width="2" x1="500" x2="100" y1="0" y2="1000" /><line stroke="rgb(255,255,0)" stroke-width="2" x1="500" x2="300" y1="0" y2="1000" /><line stroke="rgb(255,255,0)" stroke-width="2" x1="500" x2="700" y1="0" y2="1000" /><line stroke="rgb(255,255,0)" stroke-width="2" x1="500" x2="900" y1="0" y2="1000" /><line stroke="rgb(255,255,0)" stroke-width="2" x1="500" x2="1000" y1="0" y2="100" /><line stroke="rgb(255,255,0)" stroke-width="2" x1="500" x2="1000" y1="0" y2="300" /><line stroke="rgb(255,255,0)" stroke-width="2" x1="500" x2="1000" y1="0" y2="500" /><line stroke="rgb(255,255,0)" stroke-width="2" x1="500" x2="1000" y1="0" y2="700" /><line stroke="blue" stroke-width="2" x1="500" x2="500" y1="0" y2="1000" /></svg>