<?xml version="1.0" encoding="UTF-8" standalone="no"?>
<svg
   height="500"
   version="1.1"
   width="500"
   id="svg14"
   xml:space="preserve"
   xmlns="http://www.w3.org/2000/svg"
   xmlns:svg="http://www.w3.org/2000/svg"><defs
     id="defs2" /><circle
     style="fill:none;stroke:#00eeff;stroke-width:0.684;stroke-dasharray:none;stroke-opacity:1"
     id="path1-3-5-3-3-7-9-5-8-7-4-5-8-5-5-9-0-8-1-7"
     cx="215.28033"
     cy="-181.75978"
     r="2.3718441"
     transform="rotate(89.915704)" /><circle
     style="fill:none;stroke:#00efff;stroke-width:0.684;stroke-dasharray:none;stroke-opacity:1"
     id="path1-3-5-3-3-7-9-5-8-7-4-5-8-5-5-9-0-8-3-1-8"
     cx="226.44655"
     cy="-205.23125"
     r="2.3718441"
     transform="rotate(89.915704)" /><circle
     style="fill:none;stroke:#00f0ff;stroke-width:0.684;stroke-dasharray:none;stroke-opacity:1"
     id="path1-3-5-3-3-7-9-5-8-7-4-5-8-5-5-9-0-8-3-2-0-7"
     cx="215.50917"
     cy="-228.56252"
     r="2.3718441"
     transform="rotate(89.915704)" /><path
     style="fill:#0000ff;stroke:#ff00ff;stroke-width:0.560553;stroke-linecap:butt;stroke-linejoin:miter;stroke-dasharray:none;stroke-opacity:1"
     d="M 205.52054,269.84724 205.3666,205.7653"
     id="path1-8-4-5-8-1-0" /><path
     style="fill:none;stroke:#ffff00;stroke-width:0.5;stroke-linecap:butt;stroke-linejoin:miter;stroke-dasharray:none;stroke-opacity:1"
     d="m 181.85107,214.81056 23.76136,11.76294 22.83403,-11.278"
     id="path6-7-9-9-5" /><path
     style="fill:none;stroke:#000000;stroke-width:0.648463;stroke-linecap:butt;stroke-linejoin:miter;stroke-dasharray:none;stroke-opacity:1"
     d="m 224.50635,202.00504 -12.56676,3.57029 -6.58165,0.46478 -6.58166,-0.68001 -12.56676,-3.57029 m 38.34708,0.15699 11.07634,0.77892 15.53029,4.58461 10.02693,2.49843 14.00974,-0.64331 15.52534,-5.05251 2.14826,1.59212 -0.47716,2.8962 -7.91454,4.92849 -10.18779,3.39846 -13.22901,1.0865 -13.78261,-2.12872 -15.4946,-2.27554 -2.95294,1.33297 13.92644,7.492 -0.45301,2.41605 -3.02006,1.96303 -6.19112,1.20803 -9.51318,-3.47307 -0.60401,4.07708 -3.92608,9.66418 -4.53009,9.51318 -0.302,3.47306 0.75501,4.07708 1.35903,3.47307 -0.75502,1.81204 0.45301,2.11404 -1.20802,2.71805 -4.83209,4.22808 -4.6089,0.24719 -4.6089,-0.30146 -4.88574,-4.38904 -1.20802,-2.71805 0.45301,-2.11404 -0.75502,-1.81204 1.35903,-3.47307 0.75501,-4.07708 -0.302,-3.47306 -4.53009,-9.51318 -3.92608,-9.66418 -0.60401,-4.07708 -9.51318,3.47307 -6.19112,-1.20803 -3.02006,-1.96303 -0.45301,-2.41605 13.92644,-7.492 -2.95294,-1.33297 -15.4946,2.27554 -13.78261,2.12872 -13.22901,-1.0865 -10.18779,-3.39846 -7.91454,-4.92849 -0.47716,-2.8962 2.14826,-1.59212 15.52534,5.05251 14.00974,0.64331 10.02693,-2.49843 15.53029,-4.58461 11.07634,-0.77892"
     id="path6-8-4-0" /><line
     stroke="#000000"
     stroke-width="2"
     x1="131.02887"
     x2="271.02887"
     y1="410.15524"
     y2="410.15524"
     id="line89418"
     style="stroke-width:1;stroke-dasharray:none" /><line
     stroke="#000000"
     stroke-width="2"
     x1="271.02887"
     x2="271.02887"
     y1="410.15524"
     y2="460.15524"
     id="line89420"
     style="stroke-width:1;stroke-dasharray:none" /><line
     stroke="#000000"
     stroke-width="2"
     x1="131.02887"
     x2="131.02887"
     y1="410.15524"
     y2="460.15524"
     id="line89422"
     style="stroke-width:1;stroke-dasharray:none" /><line
     stroke="blue"
     stroke-width="2"
     x1="201.02887"
     x2="201.02887"
     y1="410.15524"
     y2="460.15524"
     id="line89432"
     style="fill:#ff00ff;stroke:#ff00ff;stroke-opacity:1" /><line
     stroke="rgb(0,255,255)"
     stroke-width="2"
     x1="131.02887"
     x2="201.02887"
     y1="460.15524"
     y2="460.15524"
     id="line89434"
     style="stroke:#ff00ff;stroke-opacity:1" /><line
     stroke="rgb(0,155,255)"
     stroke-width="2"
     x1="201.02887"
     x2="271.02887"
     y1="460.15524"
     y2="460.15524"
     id="line89436"
     style="stroke:#ff00ff;stroke-opacity:1" /><path
     style="fill:none;stroke:#000000;stroke-width:1.03536px;stroke-linecap:butt;stroke-linejoin:miter;stroke-opacity:1"
     d="M 146.54907,291.51768 V 392.66134 H 257.03775 V 291.51768 Z"
     id="path1" /><path
     style="fill:none;stroke:#ffff00;stroke-width:1.0367px;stroke-linecap:butt;stroke-linejoin:miter;stroke-opacity:1"
     d="m 201.90424,338.57976 49.96326,50.17093"
     id="path4" /><path
     style="fill:none;stroke:#0000ff;stroke-width:1.00804px;stroke-linecap:butt;stroke-linejoin:miter;stroke-opacity:1"
     d="M 202.2156,393.34371 V 291.16003"
     id="path2" /><path
     style="fill:none;stroke:#ffff00;stroke-width:1.01063px;stroke-linecap:butt;stroke-linejoin:miter;stroke-opacity:1"
     d="m 201.91042,338.56868 -49.95711,49.4391"
     id="path3" /><path
     style="fill:none;stroke:#ffff00;stroke-width:1;stroke-linecap:butt;stroke-linejoin:miter;stroke-dasharray:none;stroke-opacity:1"
     d="m 250.92812,389.4655 6.37798,-7.30288"
     id="path7" /><path
     style="fill:none;stroke:#ffff00;stroke-width:1;stroke-linecap:butt;stroke-linejoin:miter;stroke-dasharray:none;stroke-opacity:1"
     d="m 152.45028,388.96063 -5.38384,-7.87096"
     id="path7-3" /><circle
     style="fill:none;stroke:#00ffff;stroke-opacity:1"
     id="path8"
     cx="228.79633"
     cy="384.64746"
     r="1.8389592" /><circle
     style="fill:none;stroke:#00feff;stroke-opacity:1"
     id="path8-9"
     cx="206.40373"
     cy="361.45468"
     r="1.8389592" /><circle
     style="fill:none;stroke:#00faff;stroke-opacity:1"
     id="path8-9-1"
     cx="196.35716"
     cy="361.60477"
     r="1.8389592" /><circle
     style="fill:none;stroke:#00faff;stroke-opacity:1"
     id="path8-9-1-9"
     cx="182.85155"
     cy="473.3999"
     r="1.8389592" /><circle
     style="fill:none;stroke:#00f9ff;stroke-opacity:1"
     id="path8-9-1-6"
     cx="174.28683"
     cy="384.57852"
     r="1.8389592" /><circle
     style="fill:none;stroke:#00f8ff;stroke-opacity:1"
     id="path8-9-1-6-6"
     cx="151.98137"
     cy="388.42764"
     r="1.8389592" /><circle
     style="fill:none;stroke:#00f9ff;stroke-opacity:1"
     id="path8-9-1-6-2"
     cx="150.42316"
     cy="472.99191"
     r="1.8389592" /><circle
     style="fill:none;stroke:#00ffff;stroke-opacity:1"
     id="path8-1"
     cx="-155.60449"
     cy="513.16205"
     r="1.8389592"
     transform="rotate(-45)" /><circle
     style="fill:none;stroke:#00fcff;stroke-opacity:1"
     id="path8-1-4"
     cx="-133.86633"
     cy="516.96051"
     r="1.8389592"
     transform="rotate(-45)" /><circle
     style="fill:none;stroke:#00fdff;stroke-opacity:1"
     id="path8-9-9-0"
     transform="rotate(-45)"
     r="4.2900438"
     cy="467.92169"
     cx="-183.36169" /><circle
     style="fill:none;stroke:#00fdff;stroke-opacity:1"
     id="path8-9-9-0-5"
     transform="rotate(-45)"
     r="4.2900438"
     cy="382.62006"
     cx="-97.030922" /><circle
     style="fill:none;stroke:#00f8ff;stroke-opacity:1"
     id="path8-9-1-6-6-2"
     cx="131.33896"
     cy="459.84747"
     r="1.8389592" /><path
     style="fill:none;stroke:#000000;stroke-width:1;stroke-linecap:butt;stroke-linejoin:miter;stroke-dasharray:none;stroke-opacity:1"
     d="m 201.15991,459.98027 19.49971,12.64085 32.18797,0.28235 18.63516,-13.27048"
     id="path5" /><circle
     style="fill:none;stroke:#00fcff;stroke-opacity:1"
     id="path8-1-4-1"
     cx="-96.988846"
     cy="452.44171"
     r="1.8389592"
     transform="rotate(-45)" /><path
     style="fill:none;stroke:#ffff00;stroke-width:1;stroke-linecap:butt;stroke-linejoin:miter;stroke-dasharray:none;stroke-opacity:1"
     d="m 202.1417,338.85531 4.60832,22.77703 22.31558,23.19829 22.51912,4.03277"
     id="path5-5" /><path
     style="fill:none;stroke:#ffff00;stroke-width:1;stroke-linecap:butt;stroke-linejoin:miter;stroke-dasharray:none;stroke-opacity:1"
     d="m 201.15748,338.71288 -4.60831,22.77703 -22.31558,23.19828 -22.51912,4.03277"
     id="path5-5-8" /><path
     style="fill:none;stroke:#000000;stroke-width:1px;stroke-linecap:butt;stroke-linejoin:miter;stroke-opacity:1"
     d="m 131.20249,460.78612 19.19985,12.14108 32.18797,0.28235 18.63516,-13.27048"
     id="path5-0" /><circle
     style="fill:none;stroke:#00feff;stroke-opacity:1"
     id="path8-9-0"
     cx="220.78378"
     cy="472.58377"
     r="1.8389592" /><circle
     style="fill:none;stroke:#00eeff;stroke-width:0.684;stroke-dasharray:none;stroke-opacity:1"
     id="path1-3-5-3-3-7-9-5-8-7-4-5-8-5-5-9-0-8-1-7-1"
     cx="410.75424"
     cy="-172.07814"
     r="2.3718441"
     transform="rotate(89.915704)" /><circle
     style="fill:none;stroke:#00efff;stroke-width:0.684;stroke-dasharray:none;stroke-opacity:1"
     id="path1-3-5-3-3-7-9-5-8-7-4-5-8-5-5-9-0-8-3-1-8-3"
     cx="411.14813"
     cy="-200.37474"
     r="2.3718441"
     transform="rotate(89.915704)" /><circle
     style="fill:none;stroke:#00f0ff;stroke-width:0.684;stroke-dasharray:none;stroke-opacity:1"
     id="path1-3-5-3-3-7-9-5-8-7-4-5-8-5-5-9-0-8-3-2-0-7-8"
     cx="410.82751"
     cy="-225.84628"
     r="2.3718441"
     transform="rotate(89.915704)" /><path
     style="fill:none;stroke:#ffff00;stroke-width:0.5;stroke-linecap:butt;stroke-linejoin:miter;stroke-dasharray:none;stroke-opacity:1"
     d="m 172.2912,410.63017 29.23399,49.07633 25.48743,-49.0889"
     id="path6-7-9-9-5-4" /></svg>
