<?xml version="1.0" encoding="UTF-8" standalone="no"?>
<svg
   height="500"
   version="1.1"
   width="500"
   id="svg14"
   xmlns="http://www.w3.org/2000/svg"
   xmlns:svg="http://www.w3.org/2000/svg">
  <defs
     id="defs2" />
  <circle
     style="fill:none;stroke:#00ffff;stroke-width:0.684401;stroke-opacity:1"
     id="path1-3-5"
     cx="258.95044"
     cy="195.12839"
     r="2.3718441" />
  <circle
     style="fill:none;stroke:#00ffff;stroke-width:0.684401;stroke-opacity:1"
     id="path1-3-5-3"
     cx="216.56396"
     cy="195.20947"
     r="2.3718441" />
  <circle
     style="fill:none;stroke:#00feff;stroke-width:0.684;stroke-dasharray:none;stroke-opacity:1"
     id="path1-3-5-3-3"
     cx="208.32004"
     cy="178.51962"
     r="2.3718441" />
  <circle
     style="fill:none;stroke:#00feff;stroke-width:0.684;stroke-dasharray:none;stroke-opacity:1"
     id="path1-3-5-3-3-7"
     cx="256.26593"
     cy="175.05275"
     r="2.3718441" />
  <circle
     style="fill:none;stroke:#00fdff;stroke-width:0.684;stroke-dasharray:none;stroke-opacity:1"
     id="path1-3-5-3-3-7-9"
     cx="208.39856"
     cy="211.31828"
     r="2.3718441" />
  <circle
     style="fill:none;stroke:#00fdff;stroke-width:0.684;stroke-dasharray:none;stroke-opacity:1"
     id="path1-3-5-3-3-7-9-5"
     cx="255.71497"
     cy="213.53676"
     r="2.3718441" />
  <circle
     style="fill:none;stroke:#00fcff;stroke-width:0.684;stroke-dasharray:none;stroke-opacity:1"
     id="path1-3-5-3-3-7-9-5-8"
     cx="295.81921"
     cy="195.233"
     r="2.3718441" />
  <circle
     style="fill:none;stroke:#00fcff;stroke-width:0.684;stroke-dasharray:none;stroke-opacity:1"
     id="path1-3-5-3-3-7-9-5-8-7"
     cx="307.56131"
     cy="281.27649"
     r="2.3718441" />
  <circle
     style="fill:none;stroke:#00fbff;stroke-width:0.684;stroke-dasharray:none;stroke-opacity:1"
     id="path1-3-5-3-3-7-9-5-8-7-4"
     cx="331.69025"
     cy="238.47064"
     r="2.3718441" />
  <circle
     style="fill:none;stroke:#00fbff;stroke-width:0.684;stroke-dasharray:none;stroke-opacity:1"
     id="path1-3-5-3-3-7-9-5-8-7-4-5"
     cx="305.96027"
     cy="162.04721"
     r="2.3718441" />
  <circle
     style="fill:none;stroke:#00faff;stroke-width:0.684;stroke-dasharray:none;stroke-opacity:1"
     id="path1-3-5-3-3-7-9-5-8-7-4-5-8"
     cx="305.92703"
     cy="227.41205"
     r="2.3718441" />
  <circle
     style="fill:none;stroke:#00faff;stroke-width:0.684;stroke-dasharray:none;stroke-opacity:1"
     id="path1-3-5-3-3-7-9-5-8-7-4-5-8-8"
     cx="331.45825"
     cy="323.43787"
     r="2.3718441" />
  <rect
     style="fill:none;stroke:#000000;stroke-width:0.806;stroke-dasharray:none;stroke-opacity:1"
     id="rect1"
     width="83.648827"
     height="99.707939"
     x="229.89075"
     y="146.21892" />
  <path
     style="fill:#0000ff;stroke:#0000ff;stroke-width:0.426509px;stroke-linecap:butt;stroke-linejoin:miter;stroke-opacity:1"
     d="m 229.42465,195.21668 h 85.05848"
     id="path1-8" />
  <path
     style="fill:#0000ff;stroke:#ff009b;stroke-width:0.397278px;stroke-linecap:butt;stroke-linejoin:miter;stroke-opacity:1"
     d="M 142.72407,194.85095 H 216.5232"
     id="path1-8-4" />
  <path
     style="fill:#0000ff;stroke:#ff0000;stroke-width:0.220154px;stroke-linecap:butt;stroke-linejoin:miter;stroke-opacity:1"
     d="m 327.62567,173.50542 h 22.66292"
     id="path1-8-4-5" />
  <path
     style="fill:#0000ff;stroke:#ff009b;stroke-width:0.574393px;stroke-linecap:butt;stroke-linejoin:miter;stroke-opacity:1"
     d="M 306.87866,281.2472 H 461.14832"
     id="path1-8-4-5-7" />
  <path
     style="fill:#0000ff;stroke:#ff0000;stroke-width:0.220154px;stroke-linecap:butt;stroke-linejoin:miter;stroke-opacity:1"
     d="M 213.18101,248.73501 H 190.51809"
     id="path1-8-4-5-8" />
  <path
     style="fill:none;stroke:#ffff00;stroke-width:0.426509px;stroke-linecap:butt;stroke-linejoin:miter;stroke-opacity:1"
     d="m 256.16613,174.93161 3.20387,20.21919 -3.64631,18.49089"
     id="path8" />
  <path
     style="fill:none;stroke:#ffff00;stroke-width:0.426509px;stroke-linecap:butt;stroke-linejoin:miter;stroke-opacity:1"
     d="m 305.93244,161.98077 -10.60754,33.76443 10.61832,32.16015"
     id="path8-1" />
  <path
     style="fill:none;stroke:#ffff00;stroke-width:0.426509px;stroke-linecap:butt;stroke-linejoin:miter;stroke-opacity:1"
     d="m 255.6983,213.42646 -25.75682,3.52919"
     id="path11" />
  <path
     style="fill:none;stroke:#ffff00;stroke-width:0.426509px;stroke-linecap:butt;stroke-linejoin:miter;stroke-opacity:1"
     d="M 313.56828,234.93772 305.95436,227.864"
     id="path11-7" />
  <path
     style="fill:none;stroke:#ffff00;stroke-width:0.426509px;stroke-linecap:butt;stroke-linejoin:miter;stroke-opacity:1"
     d="m 313.62054,156.80831 -7.67431,5.25851"
     id="path11-7-5" />
  <path
     style="fill:none;stroke:#ffff00;stroke-width:0.426509px;stroke-linecap:butt;stroke-linejoin:miter;stroke-opacity:1"
     d="m 256.43964,175.45704 -26.6871,-1.87258"
     id="path12" />
  <path
     style="fill:none;stroke:#000000;stroke-width:0.5;stroke-linecap:butt;stroke-linejoin:miter;stroke-dasharray:none;stroke-opacity:1"
     d="m 142.9599,194.68695 -6.07314,7.08534 -3.79765,6.70737 -1.01026,12.39934 -3.28962,6.70416 -5.56705,8.60362 9.86886,-1.26524 10.12191,-4.55486 7.07502,-9.10972 -2.77966,-14.42372 0.7656,-9.86886 18.93094,3.98696 17.87877,7.16096 23.81024,3.37494"
     id="path1" />
  <path
     style="fill:none;stroke:#000000;stroke-width:0.5;stroke-linecap:butt;stroke-linejoin:miter;stroke-dasharray:none;stroke-opacity:1"
     d="m 142.97566,194.88856 -6.07314,-7.08534 -3.79765,-6.70737 -1.01026,-12.39934 -3.28962,-6.70416 -5.56705,-8.60362 9.86886,1.26524 10.12191,4.55486 7.07502,9.10972 -2.77966,14.42372 0.7656,9.86886 18.93094,-3.98696 17.87877,-7.16096 23.81024,-3.37494"
     id="path1-7" />
  <path
     style="fill:none;stroke:#000000;stroke-width:0.5;stroke-linecap:butt;stroke-linejoin:miter;stroke-dasharray:none;stroke-opacity:1"
     d="m 208.47365,211.82359 8.34559,-16.49932 -8.34559,-16.97895"
     id="path2" />
  <path
     style="fill:none;stroke:#000000;stroke-width:0.5;stroke-linecap:butt;stroke-linejoin:miter;stroke-dasharray:none;stroke-opacity:1"
     d="m 327.44905,173.5635 15.44287,28.01449 h 21.48933 l -15.14486,-28.03846"
     id="path3" />
  <path
     style="fill:none;stroke:#000000;stroke-width:0.5;stroke-linecap:butt;stroke-linejoin:miter;stroke-dasharray:none;stroke-opacity:1"
     d="m 327.42792,173.65118 15.5422,-27.91515 h 21.48933 l -15.14486,28.03846"
     id="path3-3" />
  <path
     style="fill:none;stroke:#000000;stroke-width:0.5;stroke-linecap:butt;stroke-linejoin:miter;stroke-dasharray:none;stroke-opacity:1"
     d="m 213.01069,248.5733 -15.44287,28.01449 h -21.48933 l 15.14486,-28.03846"
     id="path3-38" />
  <path
     style="fill:none;stroke:#000000;stroke-width:0.5;stroke-linecap:butt;stroke-linejoin:miter;stroke-dasharray:none;stroke-opacity:1"
     d="m 213.03182,248.66098 -15.5422,-27.91515 h -21.48933 l 15.14486,28.03846"
     id="path3-3-1" />
  <path
     style="fill:none;stroke:#000000;stroke-width:1px;stroke-linecap:butt;stroke-linejoin:miter;stroke-opacity:1"
     d="m 307.18581,280.89513 24.2151,42.89532 40.3585,3.92054 29.51936,-5.53488 31.13369,-11.99224 18.68022,-16.60464 9.68604,-12.6841"
     id="path4" />
  <path
     style="fill:none;stroke:#000000;stroke-width:1px;stroke-linecap:butt;stroke-linejoin:miter;stroke-opacity:1"
     d="m 307.43541,281.32039 24.2151,-42.89532 40.3585,-3.92054 29.51936,5.53488 31.13369,11.99224 18.68022,16.60464 9.36702,12.60142"
     id="path4-2" />
</svg>
