<?xml version="1.0" encoding="UTF-8" standalone="no"?>
<svg
   height="500"
   version="1.1"
   width="500"
   id="svg14"
   xml:space="preserve"
   xmlns="http://www.w3.org/2000/svg"
   xmlns:svg="http://www.w3.org/2000/svg"><defs
     id="defs2" /><circle
     style="fill:none;stroke:#00ffff;stroke-width:0.684401;stroke-opacity:1"
     id="path1-3-5"
     cx="217.28404"
     cy="-282.9086"
     r="2.3718441"
     transform="rotate(89.915704)" /><circle
     style="fill:none;stroke:#00feff;stroke-width:0.684;stroke-dasharray:none;stroke-opacity:1"
     id="path1-3-5-3-3-7"
     cx="204.82404"
     cy="-293.79446"
     r="2.3718441"
     transform="rotate(89.915704)" /><circle
     style="fill:none;stroke:#00fdff;stroke-width:0.684;stroke-dasharray:none;stroke-opacity:1"
     id="path1-3-5-3-3-7-9-5"
     cx="204.79784"
     cy="-272.63416"
     r="2.3718441"
     transform="rotate(89.915704)" /><circle
     style="fill:none;stroke:#00ffff;stroke-width:0.684401;stroke-opacity:1"
     id="path1-3-5-4"
     cx="211.67314"
     cy="-408.23071"
     r="2.3718441"
     transform="rotate(89.915704)" /><circle
     style="fill:none;stroke:#00feff;stroke-width:0.684;stroke-dasharray:none;stroke-opacity:1"
     id="path1-3-5-3-3-7-3"
     cx="202.60864"
     cy="-423.37384"
     r="2.3718441"
     transform="rotate(89.915704)" /><circle
     style="fill:none;stroke:#00fdff;stroke-width:0.684;stroke-dasharray:none;stroke-opacity:1"
     id="path1-3-5-3-3-7-9-5-6"
     cx="203.31346"
     cy="-393.55307"
     r="2.3718441"
     transform="rotate(89.915704)" /><circle
     style="fill:none;stroke:#00fcff;stroke-width:0.684;stroke-dasharray:none;stroke-opacity:1"
     id="path1-3-5-3-3-7-9-5-8"
     cx="254.97862"
     cy="-282.80276"
     r="2.3718441"
     transform="rotate(89.915704)" /><circle
     style="fill:none;stroke:#00fbff;stroke-width:0.684;stroke-dasharray:none;stroke-opacity:1"
     id="path1-3-5-3-3-7-9-5-8-7-4-5"
     cx="236.91672"
     cy="-299.05768"
     r="2.3718441"
     transform="rotate(89.915704)" /><circle
     style="fill:none;stroke:#00faff;stroke-width:0.684;stroke-dasharray:none;stroke-opacity:1"
     id="path1-3-5-3-3-7-9-5-8-7-4-5-8"
     cx="237.4286"
     cy="-268.42404"
     r="2.3718441"
     transform="rotate(89.915704)" /><rect
     style="fill:none;stroke:#000000;stroke-width:0.806;stroke-dasharray:none;stroke-opacity:1"
     id="rect1"
     width="83.648827"
     height="99.707939"
     x="182.14789"
     y="-331.827"
     transform="rotate(89.915704)" /><path
     style="fill:#0000ff;stroke:#0000ff;stroke-width:0.426509px;stroke-linecap:butt;stroke-linejoin:miter;stroke-opacity:1"
     d="m 283.09624,181.26549 0.12514,85.05839"
     id="path1-8" /><circle
     style="fill:none;stroke:#00fcff;stroke-width:0.684;stroke-dasharray:none;stroke-opacity:1"
     id="path1-3-5-3-3-7-9-5-8-3"
     cx="257.98965"
     cy="-407.90656"
     r="2.3718441"
     transform="rotate(89.915704)" /><circle
     style="fill:none;stroke:#00fbff;stroke-width:0.684;stroke-dasharray:none;stroke-opacity:1"
     id="path1-3-5-3-3-7-9-5-8-7-4-5-81"
     cx="245.44922"
     cy="-428.18396"
     r="2.3718441"
     transform="rotate(89.915704)" /><circle
     style="fill:none;stroke:#00faff;stroke-width:0.684;stroke-dasharray:none;stroke-opacity:1"
     id="path1-3-5-3-3-7-9-5-8-7-4-5-8-5"
     cx="246.72604"
     cy="-388.78085"
     r="2.3718441"
     transform="rotate(89.915704)" /><circle
     style="fill:none;stroke:#00f9ff;stroke-width:0.684;stroke-dasharray:none;stroke-opacity:1"
     id="path1-3-5-3-3-7-9-5-8-7-4-5-8-5-5"
     cx="244.61186"
     cy="-343.61661"
     r="2.3718441"
     transform="rotate(89.915704)" /><circle
     style="fill:none;stroke:#00f8ff;stroke-width:0.684;stroke-dasharray:none;stroke-opacity:1"
     id="path1-3-5-3-3-7-9-5-8-7-4-5-8-5-5-9"
     cx="260.66519"
     cy="-359.90897"
     r="2.3718441"
     transform="rotate(89.915704)" /><circle
     style="fill:none;stroke:#00f7ff;stroke-width:0.684;stroke-dasharray:none;stroke-opacity:1"
     id="path1-3-5-3-3-7-9-5-8-7-4-5-8-5-5-9-0"
     cx="244.37926"
     cy="-377.6348"
     r="2.3718441"
     transform="rotate(89.915704)" /><circle
     style="fill:none;stroke:#00f9ff;stroke-width:0.684;stroke-dasharray:none;stroke-opacity:1"
     id="path1-3-5-3-3-7-9-5-8-7-4-5-8-5-5-2"
     cx="228.30186"
     cy="-389.06781"
     r="2.3718441"
     transform="rotate(89.915704)" /><circle
     style="fill:none;stroke:#00f8ff;stroke-width:0.684;stroke-dasharray:none;stroke-opacity:1"
     id="path1-3-5-3-3-7-9-5-8-7-4-5-8-5-5-9-7"
     cx="239.96968"
     cy="-408.29312"
     r="2.3718441"
     transform="rotate(89.915704)" /><circle
     style="fill:none;stroke:#00f7ff;stroke-width:0.684;stroke-dasharray:none;stroke-opacity:1"
     id="path1-3-5-3-3-7-9-5-8-7-4-5-8-5-5-9-0-1"
     cx="228.44275"
     cy="-428.29831"
     r="2.3718441"
     transform="rotate(89.915704)" /><circle
     style="fill:none;stroke:#00f6ff;stroke-width:0.684;stroke-dasharray:none;stroke-opacity:1"
     id="path1-3-5-3-3-7-9-5-8-7-4-5-8-5-5-9-0-8"
     cx="208.50427"
     cy="-348.46255"
     r="2.3718441"
     transform="rotate(89.915704)" /><circle
     style="fill:none;stroke:#00f5ff;stroke-width:0.684;stroke-dasharray:none;stroke-opacity:1"
     id="path1-3-5-3-3-7-9-5-8-7-4-5-8-5-5-9-0-8-3"
     cx="219.53021"
     cy="-359.94061"
     r="2.3718441"
     transform="rotate(89.915704)" /><circle
     style="fill:none;stroke:#00f4ff;stroke-width:0.684;stroke-dasharray:none;stroke-opacity:1"
     id="path1-3-5-3-3-7-9-5-8-7-4-5-8-5-5-9-0-8-3-2"
     cx="208.6806"
     cy="-372.20807"
     r="2.3718441"
     transform="rotate(89.915704)" /><circle
     style="fill:none;stroke:#00f3ff;stroke-width:0.684;stroke-dasharray:none;stroke-opacity:1"
     id="path1-3-5-3-3-7-9-5-8-7-4-5-8-5-5-9-0-8-3-2-8"
     cx="122.55175"
     cy="-347.29037"
     r="2.3718441"
     transform="rotate(89.915704)" /><circle
     style="fill:none;stroke:#00f2ff;stroke-width:0.684;stroke-dasharray:none;stroke-opacity:1"
     id="path1-3-5-3-3-7-9-5-8-7-4-5-8-5-5-9-0-8-3-2-8-4"
     cx="122.35189"
     cy="-332.30881"
     r="2.3718441"
     transform="rotate(89.915704)" /><circle
     style="fill:none;stroke:#00f1ff;stroke-width:0.684;stroke-dasharray:none;stroke-opacity:1"
     id="path1-3-5-3-3-7-9-5-8-7-4-5-8-5-5-9-0-8-3-2-8-4-1"
     cx="112.64109"
     cy="-339.67621"
     r="2.3718441"
     transform="rotate(89.915704)" /><circle
     style="fill:none;stroke:#00f1ff;stroke-width:0.684;stroke-dasharray:none;stroke-opacity:1"
     id="path1-3-5-3-3-7-9-5-8-7-4-5-8-5-5-9-0-8-3-2-8-4-1-9"
     cx="193.63113"
     cy="-360.05478"
     r="2.3718441"
     transform="rotate(89.915704)" /><circle
     style="fill:none;stroke:#00f6ff;stroke-width:0.684;stroke-dasharray:none;stroke-opacity:1"
     id="path1-3-5-3-3-7-9-5-8-7-4-5-8-5-5-9-0-8-1"
     cx="185.22691"
     cy="-394.32123"
     r="2.3718441"
     transform="rotate(89.915704)" /><circle
     style="fill:none;stroke:#00f5ff;stroke-width:0.684;stroke-dasharray:none;stroke-opacity:1"
     id="path1-3-5-3-3-7-9-5-8-7-4-5-8-5-5-9-0-8-3-1"
     cx="194.03595"
     cy="-408.8981"
     r="2.3718441"
     transform="rotate(89.915704)" /><circle
     style="fill:none;stroke:#00f4ff;stroke-width:0.684;stroke-dasharray:none;stroke-opacity:1"
     id="path1-3-5-3-3-7-9-5-8-7-4-5-8-5-5-9-0-8-3-2-0"
     cx="185.45143"
     cy="-423.89319"
     r="2.3718441"
     transform="rotate(89.915704)" /><path
     style="fill:#0000ff;stroke:#ff009b;stroke-width:0.453687;stroke-linecap:butt;stroke-linejoin:miter;stroke-dasharray:none;stroke-opacity:1"
     d="m 408.58871,257.84079 -0.0335,-18.5947"
     id="path1-8-4-5-8" /><path
     style="fill:#0000ff;stroke:#9b00ff;stroke-width:0.5;stroke-linecap:butt;stroke-linejoin:miter;stroke-dasharray:none;stroke-opacity:1"
     d="m 360.27644,260.39009 -0.109,-67.94226"
     id="path1-8-4-5-8-1" /><path
     style="fill:#0000ff;stroke:#ff009b;stroke-width:0.453687;stroke-linecap:butt;stroke-linejoin:miter;stroke-dasharray:none;stroke-opacity:1"
     d="m 408.90487,211.4116 -0.0335,-18.59469"
     id="path1-8-4-5-8-6" /><path
     style="fill:none;stroke:#ffff00;stroke-width:0.426509px;stroke-linecap:butt;stroke-linejoin:miter;stroke-opacity:1"
     d="m 243.49904,265.46747 25.53893,-28.26336 14.31693,17.66988 16.03243,-18.48921 22.24111,29.02"
     id="path11-7" /><path
     style="fill:none;stroke:#ffff00;stroke-width:0.426509px;stroke-linecap:butt;stroke-linejoin:miter;stroke-opacity:1"
     d="m 232.38557,230.05253 40.57226,-26.36147 10.14916,13.13738 10.31905,-12.66198 38.93442,27.0815"
     id="path11-7-5" /><path
     style="fill:none;stroke:#000000;stroke-width:0.5;stroke-linecap:butt;stroke-linejoin:miter;stroke-dasharray:none;stroke-opacity:1"
     d="m 424.11637,184.46786 -0.0728,17.31394 -15.29366,9.42288 -14.29324,-8.75218 -0.0316,-18.35778 14.49114,8.82211 z"
     id="path3-3-1" /><path
     style="fill:none;stroke:#000000;stroke-width:0.5;stroke-linecap:butt;stroke-linejoin:miter;stroke-dasharray:none;stroke-opacity:1"
     d="m 428.88749,227.7246 -0.0728,17.31395 -20.22841,12.96303 -19.12072,-11.86322 -0.0316,-18.35779 19.31862,11.93315 z"
     id="path3-3-1-8" /><path
     style="fill:none;stroke:#000000;stroke-width:0.5;stroke-linecap:butt;stroke-linejoin:miter;stroke-dasharray:none;stroke-opacity:1"
     d="m 372.78769,208.21863 5.05371,35.51096 -17.4882,16.39629 -16.38086,-16.08911 4.63656,-36.12952 11.6177,-15.25396 z"
     id="path3-3-1-8-5" /><path
     style="fill:none;stroke:#ffff00;stroke-width:0.5;stroke-linecap:butt;stroke-linejoin:miter;stroke-dasharray:none;stroke-opacity:1"
     d="m 348.73241,208.28709 11.48917,10.62153 12.23766,-10.66912"
     id="path2" /><path
     style="fill:#0000ff;stroke:#ff009b;stroke-width:0.560553;stroke-linecap:butt;stroke-linejoin:miter;stroke-dasharray:none;stroke-opacity:1"
     d="m 339.9116,175.71679 -0.15394,-64.08194"
     id="path1-8-4-5-8-1-0" /><path
     style="fill:none;stroke:#ffff00;stroke-width:0.5;stroke-linecap:butt;stroke-linejoin:miter;stroke-dasharray:none;stroke-opacity:1"
     d="m 316.65706,120.67781 16.25961,0.67106 6.88829,-9.35477 7.38191,9.19192 15.36689,-0.48252"
     id="path6-7-9-9-5" /><circle
     style="fill:none;stroke:#00f3ff;stroke-width:0.684;stroke-dasharray:none;stroke-opacity:1"
     id="path1-3-5-3-3-7-9-5-8-7-4-5-8-5-5-9-0-8-3-2-8-5"
     cx="202.85857"
     cy="-367.97778"
     r="2.3718441"
     transform="rotate(89.915704)" /><circle
     style="fill:none;stroke:#00f2ff;stroke-width:0.684;stroke-dasharray:none;stroke-opacity:1"
     id="path1-3-5-3-3-7-9-5-8-7-4-5-8-5-5-9-0-8-3-2-8-4-8"
     cx="202.65871"
     cy="-352.99622"
     r="2.3718441"
     transform="rotate(89.915704)" /><path
     style="fill:none;stroke:#ffff00;stroke-width:0.5;stroke-linecap:butt;stroke-linejoin:miter;stroke-dasharray:none;stroke-opacity:1"
     d="m 352.77776,201.9604 7.51487,9.21397 8.09777,-8.51638"
     id="path2-7" /><path
     style="fill:none;stroke:#000000;stroke-width:0.648463;stroke-linecap:butt;stroke-linejoin:miter;stroke-dasharray:none;stroke-opacity:1"
     d="m 358.89741,107.87459 -12.56676,3.57029 -6.58165,0.46478 -6.58166,-0.68001 -12.56676,-3.57029 m 38.34708,0.15699 11.07634,0.77892 15.53029,4.58461 10.02693,2.49843 14.00974,-0.64331 15.52534,-5.05251 2.14826,1.59212 -0.47716,2.8962 -7.91454,4.92849 -10.18779,3.39846 -13.22901,1.0865 -13.78261,-2.12872 -15.4946,-2.27554 -2.95294,1.33297 13.92644,7.492 -0.45301,2.41605 -3.02006,1.96303 -6.19112,1.20803 -9.51318,-3.47307 -0.60401,4.07708 -3.92608,9.66418 -4.53009,9.51318 -0.302,3.47306 0.75501,4.07708 1.35903,3.47307 -0.75502,1.81204 0.45301,2.11404 -1.20802,2.71805 -4.83209,4.22808 -4.6089,0.24719 -4.6089,-0.30146 -4.88574,-4.38904 -1.20802,-2.71805 0.45301,-2.11404 -0.75502,-1.81204 1.35903,-3.47307 0.75501,-4.07708 -0.302,-3.47306 -4.53009,-9.51318 -3.92608,-9.66418 -0.60401,-4.07708 -9.51318,3.47307 -6.19112,-1.20803 -3.02006,-1.96303 -0.45301,-2.41605 13.92644,-7.492 -2.95294,-1.33297 -15.4946,2.27554 -13.78261,2.12872 -13.22901,-1.0865 -10.18779,-3.39846 -7.91454,-4.92849 -0.47716,-2.8962 2.14826,-1.59212 15.52534,5.05251 14.00974,0.64331 10.02693,-2.49843 15.53029,-4.58461 11.07634,-0.77892"
     id="path6-8-4-0" /></svg>
